<mxfile host="app.diagrams.net" modified="2020-08-17T03:29:45.361Z" agent="5.0 (Windows NT 10.0; Win64; x64) AppleWebKit/537.36 (KHTML, like Gecko) Chrome/84.0.4147.125 Safari/537.36 Edg/84.0.522.59" etag="yGRGCqeNawKTQHJU59tj" version="13.6.2" type="github">
  <diagram id="FBrpFYK91Onfx0kjgOgs" name="Page-1">
    <mxGraphModel dx="1248" dy="706" grid="1" gridSize="10" guides="1" tooltips="1" connect="1" arrows="1" fold="1" page="1" pageScale="1" pageWidth="827" pageHeight="1169" math="0" shadow="0">
      <root>
        <mxCell id="0" />
        <mxCell id="1" parent="0" />
        <mxCell id="8HcAtdUrZGEyJ2Y20vgF-12" style="edgeStyle=orthogonalEdgeStyle;rounded=0;orthogonalLoop=1;jettySize=auto;html=1;exitX=1;exitY=0.5;exitDx=0;exitDy=0;exitPerimeter=0;entryX=0;entryY=0.5;entryDx=0;entryDy=0;entryPerimeter=0;" edge="1" parent="1" source="8HcAtdUrZGEyJ2Y20vgF-3" target="8HcAtdUrZGEyJ2Y20vgF-6">
          <mxGeometry relative="1" as="geometry" />
        </mxCell>
        <mxCell id="8HcAtdUrZGEyJ2Y20vgF-3" value="Start" style="strokeWidth=2;html=1;shape=mxgraph.flowchart.start_1;whiteSpace=wrap;" vertex="1" parent="1">
          <mxGeometry x="50" y="50" width="100" height="60" as="geometry" />
        </mxCell>
        <mxCell id="8HcAtdUrZGEyJ2Y20vgF-4" value="end" style="strokeWidth=2;html=1;shape=mxgraph.flowchart.terminator;whiteSpace=wrap;" vertex="1" parent="1">
          <mxGeometry x="50" y="150" width="100" height="60" as="geometry" />
        </mxCell>
        <object label="준비&lt;br&gt;" id="8HcAtdUrZGEyJ2Y20vgF-5">
          <mxCell style="verticalLabelPosition=bottom;verticalAlign=top;html=1;shape=hexagon;perimeter=hexagonPerimeter2;arcSize=6;size=0.27;" vertex="1" parent="1">
            <mxGeometry x="50" y="280" width="140" height="60" as="geometry" />
          </mxCell>
        </object>
        <mxCell id="8HcAtdUrZGEyJ2Y20vgF-6" value="조건?&lt;br&gt;결정?" style="strokeWidth=2;html=1;shape=mxgraph.flowchart.decision;whiteSpace=wrap;" vertex="1" parent="1">
          <mxGeometry x="230" y="30" width="100" height="100" as="geometry" />
        </mxCell>
        <mxCell id="8HcAtdUrZGEyJ2Y20vgF-7" value="처리" style="rounded=1;whiteSpace=wrap;html=1;absoluteArcSize=1;arcSize=14;strokeWidth=2;" vertex="1" parent="1">
          <mxGeometry x="210" y="150" width="160" height="50" as="geometry" />
        </mxCell>
        <mxCell id="8HcAtdUrZGEyJ2Y20vgF-8" value="입력" style="html=1;strokeWidth=2;shape=manualInput;whiteSpace=wrap;rounded=1;size=26;arcSize=11;" vertex="1" parent="1">
          <mxGeometry x="240" y="280" width="100" height="60" as="geometry" />
        </mxCell>
        <mxCell id="8HcAtdUrZGEyJ2Y20vgF-9" value="입/출력" style="shape=parallelogram;html=1;strokeWidth=2;perimeter=parallelogramPerimeter;whiteSpace=wrap;rounded=1;arcSize=12;size=0.23;" vertex="1" parent="1">
          <mxGeometry x="230" y="410" width="100" height="60" as="geometry" />
        </mxCell>
        <mxCell id="8HcAtdUrZGEyJ2Y20vgF-10" value="문서출력" style="strokeWidth=2;html=1;shape=mxgraph.flowchart.document2;whiteSpace=wrap;size=0.25;" vertex="1" parent="1">
          <mxGeometry x="440" y="50" width="100" height="60" as="geometry" />
        </mxCell>
      </root>
    </mxGraphModel>
  </diagram>
</mxfile>
